<mxfile host="app.diagrams.net" agent="Mozilla/5.0 (Windows NT 10.0; Win64; x64) AppleWebKit/537.36 (KHTML, like Gecko) Chrome/140.0.0.0 Safari/537.36" version="28.2.0">
  <diagram name="Página-1" id="nfqdpCrkUzHxg-remrFh">
    <mxGraphModel dx="1426" dy="751" grid="1" gridSize="5" guides="1" tooltips="1" connect="1" arrows="1" fold="1" page="1" pageScale="1" pageWidth="827" pageHeight="1169" math="0" shadow="0">
      <root>
        <mxCell id="0" />
        <mxCell id="1" parent="0" />
        <mxCell id="gKBEIbaFbegW2FiuubBc-31" value="" style="rounded=0;whiteSpace=wrap;html=1;fillColor=#f5f5f5;fontColor=#333333;strokeColor=#666666;" parent="1" vertex="1">
          <mxGeometry x="220" y="560" width="420" height="220" as="geometry" />
        </mxCell>
        <mxCell id="gKBEIbaFbegW2FiuubBc-5" value="" style="edgeStyle=orthogonalEdgeStyle;rounded=0;orthogonalLoop=1;jettySize=auto;html=1;" parent="1" source="gKBEIbaFbegW2FiuubBc-1" target="gKBEIbaFbegW2FiuubBc-4" edge="1">
          <mxGeometry relative="1" as="geometry" />
        </mxCell>
        <mxCell id="gKBEIbaFbegW2FiuubBc-1" value="&lt;font style=&quot;font-size: 15px;&quot;&gt;Contexto: Era contemporanea, globalización&amp;nbsp;&lt;/font&gt;&lt;span style=&quot;font-size: 15px; background-color: transparent; color: light-dark(rgb(0, 0, 0), rgb(255, 255, 255));&quot;&gt;y&lt;/span&gt;&lt;div&gt;&lt;span style=&quot;font-size: 15px; background-color: transparent; color: light-dark(rgb(0, 0, 0), rgb(255, 255, 255));&quot;&gt;&amp;nbsp;digitalización a todos los niveles de la sociedad&lt;/span&gt;&lt;/div&gt;" style="rounded=1;whiteSpace=wrap;html=1;" parent="1" vertex="1">
          <mxGeometry x="160" y="20" width="540" height="40" as="geometry" />
        </mxCell>
        <mxCell id="gKBEIbaFbegW2FiuubBc-7" value="" style="edgeStyle=orthogonalEdgeStyle;rounded=0;orthogonalLoop=1;jettySize=auto;html=1;" parent="1" source="gKBEIbaFbegW2FiuubBc-4" target="gKBEIbaFbegW2FiuubBc-6" edge="1">
          <mxGeometry relative="1" as="geometry" />
        </mxCell>
        <mxCell id="gKBEIbaFbegW2FiuubBc-9" value="" style="edgeStyle=orthogonalEdgeStyle;rounded=0;orthogonalLoop=1;jettySize=auto;html=1;" parent="1" source="gKBEIbaFbegW2FiuubBc-4" target="gKBEIbaFbegW2FiuubBc-8" edge="1">
          <mxGeometry relative="1" as="geometry" />
        </mxCell>
        <mxCell id="gKBEIbaFbegW2FiuubBc-10" value="" style="edgeStyle=orthogonalEdgeStyle;rounded=0;orthogonalLoop=1;jettySize=auto;html=1;" parent="1" source="gKBEIbaFbegW2FiuubBc-4" target="gKBEIbaFbegW2FiuubBc-8" edge="1">
          <mxGeometry relative="1" as="geometry" />
        </mxCell>
        <mxCell id="gKBEIbaFbegW2FiuubBc-12" value="" style="edgeStyle=orthogonalEdgeStyle;rounded=0;orthogonalLoop=1;jettySize=auto;html=1;" parent="1" source="gKBEIbaFbegW2FiuubBc-4" target="gKBEIbaFbegW2FiuubBc-11" edge="1">
          <mxGeometry relative="1" as="geometry" />
        </mxCell>
        <mxCell id="gKBEIbaFbegW2FiuubBc-13" value="" style="edgeStyle=orthogonalEdgeStyle;rounded=0;orthogonalLoop=1;jettySize=auto;html=1;" parent="1" source="gKBEIbaFbegW2FiuubBc-4" target="gKBEIbaFbegW2FiuubBc-11" edge="1">
          <mxGeometry relative="1" as="geometry" />
        </mxCell>
        <mxCell id="gKBEIbaFbegW2FiuubBc-4" value="&lt;font style=&quot;font-size: 14px;&quot;&gt;Interconectividad global (IoE)&lt;/font&gt;&lt;div&gt;&lt;font style=&quot;font-size: 14px;&quot;&gt;&lt;br&gt;&lt;/font&gt;&lt;/div&gt;&lt;div&gt;&lt;font style=&quot;font-size: 14px;&quot;&gt;(Redes densas y hetereogeneas)&lt;/font&gt;&lt;/div&gt;" style="shape=hexagon;perimeter=hexagonPerimeter2;whiteSpace=wrap;html=1;fixedSize=1;rounded=1;" parent="1" vertex="1">
          <mxGeometry x="307.5" y="100" width="245" height="80" as="geometry" />
        </mxCell>
        <mxCell id="gKBEIbaFbegW2FiuubBc-6" value="&lt;font style=&quot;font-size: 14px;&quot;&gt;Comunicación&lt;/font&gt;" style="whiteSpace=wrap;html=1;rounded=1;" parent="1" vertex="1">
          <mxGeometry x="230" y="260" width="120" height="60" as="geometry" />
        </mxCell>
        <mxCell id="gKBEIbaFbegW2FiuubBc-8" value="&lt;font style=&quot;font-size: 14px;&quot;&gt;Energía&lt;/font&gt;" style="whiteSpace=wrap;html=1;rounded=1;" parent="1" vertex="1">
          <mxGeometry x="510" y="260" width="120" height="60" as="geometry" />
        </mxCell>
        <mxCell id="gKBEIbaFbegW2FiuubBc-11" value="&lt;font style=&quot;font-size: 14px;&quot;&gt;Logística&lt;/font&gt;" style="whiteSpace=wrap;html=1;rounded=1;" parent="1" vertex="1">
          <mxGeometry x="370" y="260" width="120" height="60" as="geometry" />
        </mxCell>
        <mxCell id="gKBEIbaFbegW2FiuubBc-18" value="" style="shape=umlActor;verticalLabelPosition=bottom;verticalAlign=top;html=1;outlineConnect=0;" parent="1" vertex="1">
          <mxGeometry x="170" y="720" width="30" height="60" as="geometry" />
        </mxCell>
        <mxCell id="gKBEIbaFbegW2FiuubBc-19" value="&lt;font style=&quot;font-size: 14px;&quot;&gt;Más o menos, por aquí, se enmarcaría esta Tesis&lt;/font&gt;" style="shape=callout;whiteSpace=wrap;html=1;perimeter=calloutPerimeter;position2=0.79;" parent="1" vertex="1">
          <mxGeometry x="65" y="605" width="120" height="115" as="geometry" />
        </mxCell>
        <mxCell id="gKBEIbaFbegW2FiuubBc-22" value="" style="strokeWidth=2;html=1;shape=mxgraph.flowchart.annotation_2;align=left;labelPosition=right;pointerEvents=1;rotation=-90;" parent="1" vertex="1">
          <mxGeometry x="405" y="120" width="50" height="460" as="geometry" />
        </mxCell>
        <mxCell id="gKBEIbaFbegW2FiuubBc-25" value="" style="edgeStyle=orthogonalEdgeStyle;rounded=0;orthogonalLoop=1;jettySize=auto;html=1;" parent="1" source="gKBEIbaFbegW2FiuubBc-23" edge="1">
          <mxGeometry relative="1" as="geometry">
            <mxPoint x="430" y="502.5" as="targetPoint" />
          </mxGeometry>
        </mxCell>
        <mxCell id="gKBEIbaFbegW2FiuubBc-23" value="&lt;font style=&quot;font-size: 14px;&quot;&gt;Difícil gestión y control&lt;/font&gt;" style="rounded=1;whiteSpace=wrap;html=1;" parent="1" vertex="1">
          <mxGeometry x="317.5" y="380" width="225" height="55" as="geometry" />
        </mxCell>
        <mxCell id="gKBEIbaFbegW2FiuubBc-28" value="" style="edgeStyle=orthogonalEdgeStyle;rounded=0;orthogonalLoop=1;jettySize=auto;html=1;" parent="1" source="gKBEIbaFbegW2FiuubBc-26" target="gKBEIbaFbegW2FiuubBc-27" edge="1">
          <mxGeometry relative="1" as="geometry" />
        </mxCell>
        <mxCell id="gKBEIbaFbegW2FiuubBc-26" value="&lt;font style=&quot;font-size: 15px;&quot;&gt;Solución:&amp;nbsp;&lt;span style=&quot;background-color: transparent; color: light-dark(rgb(0, 0, 0), rgb(255, 255, 255));&quot;&gt;Redes softwarizadas y programables&lt;/span&gt;&lt;/font&gt;" style="shape=hexagon;perimeter=hexagonPerimeter2;whiteSpace=wrap;html=1;fixedSize=1;" parent="1" vertex="1">
          <mxGeometry x="292.5" y="505" width="275" height="80" as="geometry" />
        </mxCell>
        <mxCell id="gKBEIbaFbegW2FiuubBc-27" value="&lt;font style=&quot;font-size: 13px;&quot;&gt;Algoritmos de control y optimización&lt;/font&gt;" style="ellipse;whiteSpace=wrap;html=1;" parent="1" vertex="1">
          <mxGeometry x="245" y="655" width="145" height="80" as="geometry" />
        </mxCell>
        <mxCell id="gKBEIbaFbegW2FiuubBc-29" value="&lt;font style=&quot;font-size: 14px;&quot;&gt;Revisión de la infraestructura&lt;/font&gt;" style="ellipse;whiteSpace=wrap;html=1;" parent="1" vertex="1">
          <mxGeometry x="470" y="655" width="145" height="80" as="geometry" />
        </mxCell>
        <mxCell id="gKBEIbaFbegW2FiuubBc-30" value="" style="edgeStyle=orthogonalEdgeStyle;rounded=0;orthogonalLoop=1;jettySize=auto;html=1;exitX=0.5;exitY=1;exitDx=0;exitDy=0;entryX=0.5;entryY=0;entryDx=0;entryDy=0;" parent="1" source="gKBEIbaFbegW2FiuubBc-26" target="gKBEIbaFbegW2FiuubBc-29" edge="1">
          <mxGeometry relative="1" as="geometry">
            <mxPoint x="547" y="620" as="sourcePoint" />
            <mxPoint x="395" y="690" as="targetPoint" />
          </mxGeometry>
        </mxCell>
      </root>
    </mxGraphModel>
  </diagram>
</mxfile>
